<?xml version="1.0" encoding="UTF-8"?>
<svg id="Calque_1" data-name="Calque 1" xmlns="http://www.w3.org/2000/svg" viewBox="0 0 88.91 72.86">
  <defs>
    <style>
      .cls-1 {
        fill: #fff;
      }
    </style>
  </defs>
  <path d="M27.69,27.49c-.8-1.43-1.64-2.83-2.37-4.26-4.03-7.94-.5-15.64,4.16-19.68,4.52-3.93,11.47-4.66,17.12-1.87,4.68,2.32,7.8,5.9,8.77,11.13,.62,3.3,.02,6.45-1.23,9.5-.13,.29-.24,.6-.41,.99,.29,.18,.58,.36,.88,.52,10.85,6.25,21.7,12.54,32.56,18.74,1.28,.73,1.9,1.61,1.66,3.07,0,.03-.02,.05,0,.08,.41,1.88-.73,2.79-2.16,3.61-4.71,2.68-9.42,5.39-14.11,8.1-8.3,4.84-16.61,9.65-24.91,14.52-2.08,1.22-4.01,1.23-6.09,.03-12.51-7.21-25.04-14.39-37.55-21.6-1.06-.6-2.06-1.28-3.09-1.92-.68-.42-1.01-.99-.83-1.85,.1-.49,.06-1.04-.03-1.53-.18-.88,.15-1.49,.84-1.93,1.61-1.01,3.2-2,4.84-2.94,7.15-4.14,14.31-8.25,21.47-12.38,.16-.11,.34-.24,.49-.34Zm12.07,36.77c.89,.5,1.77,1.01,2.7,1.53,.26-.29,.5-.55,.73-.81,2.14-2.39,4.3-4.77,6.43-7.19,.75-.84,1.62-1.17,2.68-.96,1.22,.24,2.4,.58,3.61,.91,1.01,.28,2.05,.91,3,.81,.96-.11,1.84-.96,2.74-1.48,.8-.45,1.59-.93,2.52-1.46-.44-.16-.68-.26-.94-.32-2.27-.7-4.55-1.35-6.81-2.1-1.23-.41-1.45-1.33-.58-2.31,1.33-1.49,2.73-2.92,4.01-4.47,1.1-1.33,2.4-1.61,3.98-1.12,2.86,.88,5.73,1.74,8.61,2.6,1.1,.32,2.27,1.01,3.31,.86,1.09-.15,2.08-1.07,3.1-1.67,.68-.39,1.36-.8,2.18-1.27-.39-.13-.6-.23-.83-.29-3.57-1.07-7.13-2.13-10.7-3.22-.88-.26-1.75-.55-2.6-.91-1.25-.52-1.4-1.1-.55-2.14,.31-.37,.63-.73,.96-1.1,.55-.62,1.1-1.23,1.69-1.9-.34-.19-.58-.36-.84-.5q-1.82-1.06-3.23,.52c-.93,1.02-1.84,2.06-2.76,3.07-.11,.13-.36,.13-.54,.19,.02-.21-.03-.44,.05-.62,.06-.16,.24-.29,.36-.44,1.22-1.36,2.44-2.73,3.7-4.16-.81-.47-1.54-.91-2.31-1.35-.34,.39-.67,.71-.96,1.07-.83,.99-1.59,2.05-2.5,2.99-1.14,1.19-2.53,1.9-4.22,1.38-1.95-.6-3.9-1.28-5.81-1.97-1.43-.5-2.84-1.07-4.39-1.66-.36,.39-.84,.93-1.43,1.54,1.97,.6,3.75,1.12,5.52,1.69,.24,.08,.42,.37,.62,.57-.26,.03-.55,.13-.8,.06-1.75-.52-3.51-1.09-5.26-1.61-.23-.06-.58-.13-.73,0-.63,.52-1.2,1.1-1.88,1.75,.57,.08,.96,.08,1.3,.18,3.13,.91,6.27,1.82,9.39,2.79,1.58,.49,1.85,1.59,.76,2.81-1.32,1.48-2.66,2.91-3.96,4.4-.86,.97-1.93,1.32-3.13,.97-3-.84-6.03-1.71-9-2.66-2.27-.75-2.39-1.32-.78-3.12,1.09-1.23,2.19-2.44,3.31-3.69-.78-.71-1.51-1.38-2.26-2.08-.63,.71-1.2,1.4-1.82,2.05-.15,.15-.42,.18-.65,.26,.05-.23,.03-.52,.16-.68,.57-.71,1.19-1.4,1.75-2.05-2.26-2.53-4.48-5.03-6.74-7.57-.31,.18-.65,.37-1.14,.65,.62,.24,1.12,.42,1.59,.67,.15,.08,.21,.31,.31,.49-.18,.05-.39,.16-.55,.11-.45-.15-.89-.37-1.36-.52-.29-.1-.68-.29-.89-.19-1.02,.52-2,1.12-3.17,1.79,.63,.19,1.06,.32,1.48,.45,2.01,.62,4.03,1.2,6.03,1.88,1.64,.57,1.84,1.22,.73,2.52-1.17,1.38-2.52,2.63-3.61,4.06-1.15,1.53-2.52,1.87-4.27,1.33-3.54-1.07-7.11-2.01-10.61-3.22-1.41-.47-2.18,.23-3.3,.88,.45,.16,.73,.26,1.01,.34,1.43,.42,2.84,.83,4.26,1.28,.21,.06,.36,.32,.54,.49-.24,.05-.52,.21-.73,.15-1.77-.5-3.51-1.06-5.28-1.58-.26-.08-.62-.15-.83-.05-.73,.34-1.41,.78-2.21,1.25,.45,.15,.78,.26,1.12,.37,4.61,1.4,9.24,2.81,13.85,4.21,1.17,.36,1.17,.39,.34,1.32-1.09,1.2-2.16,2.4-3.28,3.65,.88,.5,1.69,.97,2.52,1.46,.16-.18,.31-.31,.42-.45,1.23-1.43,2.47-2.86,3.74-4.27,.15-.16,.42-.19,.65-.28-.05,.26-.05,.52-.15,.75-.08,.19-.28,.32-.42,.49-1.2,1.35-2.4,2.7-3.67,4.11,.89,.52,1.67,.97,2.5,1.45,1.22-1.35,2.44-2.61,3.54-3.98,1.04-1.32,2.35-1.62,3.83-1.2,3.09,.88,6.16,1.85,9.21,2.83,1.4,.45,1.59,1.36,.62,2.45-1.66,1.85-3.31,3.7-4.99,5.55-.26,.29-.52,.6-.86,.99,.97,.5,1.85,.96,2.73,1.41,.02,.06,.08,.13,.15,.21Zm12.59-38.38c3.65,2.1,7.24,4.16,10.82,6.22,6.61,3.82,13.22,7.63,19.83,11.48,.36,.21,.81,.63,.81,.94,0,.32-.47,.73-.83,.94-12.39,7.21-24.78,14.41-37.18,21.62-.83,.49-1.61,.5-2.44,.03-2.45-1.43-4.9-2.84-7.36-4.26-9.21-5.31-18.43-10.61-27.66-15.92-.91-.52-1.82-1.07-2.68-1.67-.94-.67-.91-.97,.03-1.58,.55-.34,1.09-.7,1.66-1.02,6.35-3.69,12.7-7.36,19.05-11.04,1.02-.58,2.03-1.2,3.1-1.84-.47-.62-.89-1.2-1.32-1.77-5.03,2.92-9.97,5.81-14.93,8.69-3.88,2.24-7.76,4.47-11.63,6.72-1.3,.76-1.3,1.32-.03,2.1,2.5,1.51,5.02,2.97,7.54,4.43,10.9,6.29,21.81,12.54,32.69,18.84,1.88,1.09,3.59,1.12,5.47,.02,8.87-5.21,17.77-10.36,26.65-15.53,4.43-2.58,8.87-5.15,13.3-7.73,1.19-.68,1.17-1.38,0-2.08-.15-.08-.28-.16-.42-.24-8.45-4.87-16.87-9.74-25.32-14.62-2.68-1.54-5.38-3.1-8.09-4.66-.36,.63-.7,1.25-1.09,1.92Zm-10.41,13.64c-.47,.28-1.12,.5-1.54,.94-1.41,1.46-2.73,2.99-4.09,4.48-.81,.89-.8,1.12,.37,1.53,1.67,.58,3.39,1.07,5.1,1.58,1.41,.42,2.83,.86,4.27,1.23,.97,.26,1.84,.02,2.53-.81,1.2-1.41,2.44-2.81,3.74-4.16,1.02-1.06,.63-1.66-.52-2-1.97-.57-3.91-1.22-5.88-1.79-1.23-.34-2.5-.63-3.98-1.01Zm4.39-5.15c.34,.16,.62,.34,.91,.44,2.7,.94,5.41,1.82,8.09,2.81,1.61,.58,2.94,.23,4.04-.96,1.17-1.27,2.24-2.61,3.39-3.98-3.62-2.08-7.19-4.13-10.65-6.11-1.8,2.32-3.52,4.53-5.23,6.76-.21,.26-.34,.63-.55,1.04Zm-10.07,27.84c2.01-2.24,3.98-4.43,5.93-6.63,.6-.67,.5-1.02-.39-1.32-.81-.26-1.67-.45-2.48-.7-2.27-.68-4.53-1.41-6.81-2.08-.78-.23-1.67-.32-2.29,.32-1.4,1.46-2.73,2.99-4.14,4.53,3.41,1.95,6.76,3.88,10.18,5.86ZM14,39.65c1.38,.39,2.63,.73,3.85,1.1,2.58,.8,5.13,1.62,7.71,2.39,.91,.26,1.82,.26,2.53-.55,1.43-1.59,2.86-3.17,4.29-4.74,.71-.8,.67-1.01-.34-1.41-.15-.06-.29-.13-.45-.18-2.4-.73-4.79-1.49-7.19-2.18-.32-.1-.8,0-1.12,.18-2.63,1.49-5.23,3.02-7.84,4.55-.42,.24-.84,.5-1.43,.84Zm60.68,9.83c-3.61-1.15-7.19-2.26-10.77-3.46-1.59-.54-2.78-.11-3.83,1.07-1.27,1.45-2.52,2.89-3.8,4.32-.41,.45-.32,.76,.16,1.02,.24,.13,.49,.24,.73,.32,2.47,.75,4.95,1.51,7.44,2.23,.26,.08,.63-.02,.88-.15,2.92-1.67,5.85-3.36,8.77-5.05,.18-.11,.31-.23,.42-.31ZM37.94,22.19c1.64,.05,2.73-.94,3.8-2.01,1.98-2,3.96-3.98,5.94-5.98,.96-.96,1.02-2.03,.15-2.92-.8-.84-1.95-.84-2.87,.02-.73,.68-1.43,1.4-2.13,2.1-1.38,1.4-2.74,2.83-4.14,4.22-.71,.71-.91,.67-1.54-.05-.49-.54-1.01-1.06-1.54-1.53-.86-.76-1.98-.73-2.74,.06-.8,.81-.78,1.98,.03,2.83,.58,.6,1.15,1.2,1.77,1.79,.88,.88,1.92,1.51,3.28,1.48Zm19.94,37c-1.58-.5-3.1-.96-4.6-1.49-1.49-.54-2.68-.19-3.7,.97-2.05,2.34-4.09,4.68-6.12,7.02-.11,.13-.21,.28-.31,.41,.81,.81,1.61,.84,2.53,.29,4.01-2.39,8.07-4.76,12.2-7.19Zm11.73-22.58c-.99,1.1-1.88,2.11-2.81,3.09-.5,.54-.29,.84,.28,1.09,.5,.19,1.01,.41,1.51,.55,4.13,1.25,8.27,2.45,12.38,3.74,.93,.29,1.53,.02,2.23-.62-4.55-2.63-9.05-5.23-13.58-7.84ZM5.7,44.59c4.53,2.61,9.03,5.21,13.56,7.83,1.19-1.32,2.34-2.57,3.52-3.88-.28-.1-.42-.16-.57-.21-4.69-1.41-9.39-2.81-14.06-4.27-.94-.31-1.67-.26-2.45,.54Z"/>
  <path class="cls-1" d="M39.58,64.03c-.88-.45-1.75-.91-2.73-1.41,.34-.39,.58-.7,.86-.99,1.66-1.85,3.33-3.7,4.99-5.55,.97-1.09,.76-2-.62-2.45-3.05-.99-6.12-1.95-9.21-2.83-1.48-.42-2.79-.1-3.83,1.2-1.09,1.36-2.32,2.63-3.54,3.98-.81-.47-1.61-.93-2.5-1.45,1.27-1.41,2.47-2.76,3.67-4.11,.15-.16,.34-.29,.42-.49,.1-.23,.1-.5,.15-.75-.21,.1-.5,.11-.65,.28-1.25,1.41-2.48,2.84-3.74,4.27-.13,.15-.26,.28-.42,.45-.83-.47-1.64-.94-2.52-1.46,1.12-1.25,2.19-2.45,3.28-3.65,.83-.93,.83-.96-.34-1.32-4.61-1.4-9.24-2.81-13.85-4.21-.32-.1-.67-.21-1.12-.37,.81-.47,1.49-.89,2.21-1.25,.23-.11,.57-.03,.83,.05,1.75,.52,3.51,1.07,5.28,1.58,.21,.06,.49-.1,.73-.15-.18-.16-.32-.42-.54-.49-1.41-.45-2.84-.86-4.26-1.28-.28-.08-.55-.18-1.01-.34,1.12-.63,1.9-1.35,3.3-.88,3.49,1.19,7.08,2.13,10.61,3.22,1.75,.54,3.1,.19,4.27-1.33,1.09-1.43,2.44-2.68,3.61-4.06,1.1-1.32,.91-1.97-.73-2.52-1.98-.68-4.01-1.27-6.03-1.88-.42-.13-.86-.26-1.48-.45,1.17-.67,2.14-1.27,3.17-1.79,.21-.11,.6,.08,.89,.19,.45,.16,.89,.39,1.36,.52,.16,.05,.36-.06,.55-.11-.1-.16-.16-.41-.31-.49-.47-.24-.97-.41-1.59-.67,.49-.28,.83-.47,1.14-.65,2.26,2.53,4.48,5.03,6.74,7.57-.57,.65-1.19,1.33-1.75,2.05-.13,.16-.11,.45-.16,.68,.21-.08,.5-.11,.65-.26,.62-.65,1.19-1.33,1.82-2.05,.76,.7,1.48,1.36,2.26,2.08-1.12,1.25-2.23,2.45-3.31,3.69-1.61,1.8-1.49,2.37,.78,3.12,2.97,.97,5.99,1.82,9,2.66,1.22,.34,2.27,.02,3.13-.97,1.3-1.48,2.65-2.92,3.96-4.4,1.09-1.23,.81-2.32-.76-2.81-3.12-.96-6.25-1.87-9.39-2.79-.36-.1-.73-.11-1.3-.18,.68-.65,1.25-1.23,1.88-1.75,.15-.11,.5-.06,.73,0,1.75,.52,3.51,1.09,5.26,1.61,.24,.06,.54-.03,.8-.06-.21-.19-.37-.49-.62-.57-1.77-.57-3.56-1.1-5.52-1.69,.58-.63,1.07-1.17,1.43-1.54,1.54,.58,2.96,1.15,4.39,1.66,1.93,.68,3.87,1.36,5.81,1.97,1.71,.52,3.09-.19,4.22-1.38,.89-.93,1.66-1.98,2.5-2.99,.29-.36,.62-.68,.96-1.07,.76,.45,1.49,.88,2.31,1.35-1.27,1.43-2.48,2.79-3.7,4.16-.13,.15-.31,.26-.36,.44-.06,.18-.03,.41-.05,.62,.18-.06,.42-.08,.54-.19,.94-1.01,1.85-2.05,2.76-3.07,1.41-1.58,1.4-1.58,3.23-.52,.26,.15,.5,.29,.84,.5-.58,.67-1.14,1.28-1.69,1.9-.32,.36-.65,.71-.96,1.1-.83,1.06-.7,1.62,.55,2.14,.84,.36,1.72,.63,2.6,.91,3.56,1.09,7.13,2.14,10.7,3.22,.23,.06,.45,.16,.83,.29-.8,.47-1.48,.86-2.18,1.27-1.02,.58-2.01,1.53-3.1,1.67-1.06,.13-2.21-.54-3.31-.86-2.87-.86-5.73-1.72-8.61-2.6-1.58-.49-2.87-.21-3.98,1.12-1.28,1.54-2.68,2.97-4.01,4.47-.86,.96-.65,1.88,.58,2.31,2.26,.75,4.53,1.4,6.81,2.1,.26,.08,.5,.18,.94,.32-.93,.54-1.72,1.01-2.52,1.46-.91,.52-1.79,1.36-2.74,1.48s-2-.52-3-.81c-1.2-.32-2.39-.67-3.61-.91-1.06-.21-1.93,.11-2.68,.96-2.13,2.42-4.29,4.79-6.43,7.19-.23,.26-.47,.52-.73,.81-.93-.52-1.8-1.02-2.7-1.53,.7-.7,1.4-1.41,2.06-2.13,.08-.08,.05-.31-.02-.42-.03-.06-.31-.13-.34-.08-.6,.81-1.22,1.62-1.85,2.42Zm10.39-10.98c1.27-1.43,2.55-2.84,3.78-4.29,.16-.19,.18-.52,.26-.8-.26,.13-.58,.18-.76,.37-1.23,1.35-2.47,2.71-3.67,4.11-.31,.36-.58,.44-1.04,.28-.86-.31-1.74-.57-2.63-.81-.18-.05-.42,.1-.63,.16,.15,.15,.24,.39,.42,.45,1.82,.58,3.65,1.15,5.47,1.71,.26,.08,.55,.06,1.01,.11-.52-1.09-1.56-.76-2.21-1.3Zm-20.35-6.09c1.15-1.28,2.23-2.42,3.23-3.61,.23-.26,.29-.67,.44-1.01-.32,.18-.71,.28-.94,.52-.94,1.01-1.82,2.06-2.73,3.12-.39,.45-.73,.97-1.46,.57-.08-.05-.31,.05-.41,.15-.06,.06-.03,.31,.03,.36,.34,.23,.68,.52,1.07,.62,.71,.19,1.46,.26,2.16,.44,.94,.24,1.85,.57,2.79,.81,.19,.05,.42-.08,.65-.13-.16-.18-.29-.41-.49-.5-.28-.15-.62-.21-.93-.31-1.07-.32-2.16-.65-3.43-1.02Zm38.17-2.81c.02-.1,.03-.18,.05-.28-.13-.11-.24-.26-.41-.31-1.95-.62-3.91-1.23-5.86-1.82-.15-.05-.36,.13-.54,.19,.11,.16,.19,.39,.34,.45,.42,.18,.88,.28,1.32,.41,1.48,.45,2.94,.91,4.42,1.33,.19,.06,.44,.02,.68,.02Zm-24.31,7.28c-.29-.23-.41-.39-.57-.44-1.95-.6-3.9-1.2-5.86-1.77-.15-.05-.36,.1-.54,.16,.1,.16,.16,.44,.29,.49,1.97,.63,3.95,1.23,5.93,1.82,.16,.03,.39-.15,.75-.26Zm33.08-4.61c.02-.08,.02-.15,.03-.23-.13-.11-.24-.26-.39-.31-1.95-.62-3.9-1.23-5.85-1.82-.16-.05-.37,.1-.55,.15,.11,.18,.19,.44,.36,.5,.6,.23,1.22,.41,1.84,.58,1.32,.41,2.61,.81,3.93,1.19,.19,.06,.42-.03,.63-.06Zm-23.92-7.84c-.1,.06-.34,.13-.36,.24-.03,.13,.1,.34,.23,.44,.13,.11,.34,.15,.52,.21,1.72,.52,3.46,1.04,5.2,1.54,.24,.06,.52-.05,.78-.08-.21-.19-.39-.47-.63-.55-1.61-.54-3.23-1.02-4.86-1.53-.26-.1-.54-.18-.88-.28Zm8.22,17.85c0-.08,.02-.16,.02-.24-.19-.11-.39-.26-.6-.32-1.88-.57-3.75-1.14-5.64-1.69-.16-.05-.37,.08-.55,.11,.11,.18,.19,.42,.37,.5,.47,.19,.97,.32,1.46,.47,1.45,.42,2.89,.86,4.34,1.27,.16,.05,.39-.06,.6-.1Zm-.44-15.66c-.13-.05-.26-.13-.37-.11-.16,.02-.37,.1-.49,.21-1.36,1.51-2.71,3-4.04,4.55-.1,.11-.03,.41-.03,.6,.18-.05,.42-.05,.54-.18,1.32-1.43,2.6-2.89,3.9-4.34,.13-.16,.24-.36,.5-.73Zm-41.06,2.71l-.24-.24c-.06,.18-.19,.37-.16,.52,.05,.16,.24,.36,.41,.41,1.59,.5,3.18,.99,4.79,1.48,.36,.11,.73,.21,1.09,.29,.13,.02,.28-.08,.42-.13-.06-.16-.1-.36-.21-.45-.13-.11-.34-.15-.52-.21-1.72-.52-3.46-1.04-5.2-1.56-.11-.05-.24-.06-.37-.1Zm23.99,16.37c.21-.16,.36-.24,.45-.36,1.3-1.45,2.61-2.87,3.88-4.34,.15-.18,.15-.5,.21-.75-.24,.11-.57,.15-.73,.32-1.27,1.4-2.52,2.81-3.77,4.22-.1,.11-.24,.26-.26,.39,0,.15,.13,.29,.21,.5Z"/>
  <path class="cls-1" d="M52.35,25.88c.39-.68,.73-1.28,1.1-1.95,2.71,1.56,5.41,3.12,8.09,4.66,8.45,4.87,16.87,9.74,25.32,14.62,.15,.08,.28,.16,.42,.24,1.17,.7,1.17,1.4,0,2.08-4.43,2.58-8.87,5.16-13.3,7.73-8.9,5.2-17.8,10.35-26.67,15.56-1.88,1.1-3.59,1.09-5.47-.02-10.88-6.32-21.8-12.57-32.69-18.84-2.52-1.46-5.05-2.92-7.54-4.43-1.28-.76-1.28-1.32,.03-2.1,3.87-2.27,7.76-4.48,11.63-6.72,4.95-2.87,9.89-5.75,14.93-8.69,.42,.57,.86,1.14,1.32,1.77-1.07,.63-2.08,1.23-3.1,1.84-6.35,3.69-12.7,7.36-19.05,11.04-.55,.32-1.1,.67-1.66,1.02-.96,.6-.97,.93-.03,1.58,.86,.6,1.77,1.14,2.68,1.67,9.21,5.31,18.43,10.61,27.66,15.92,2.45,1.41,4.9,2.84,7.36,4.26,.83,.49,1.61,.45,2.44-.03,12.39-7.21,24.78-14.41,37.16-21.62,.36-.21,.83-.62,.83-.94s-.45-.73-.81-.94c-6.59-3.85-13.22-7.67-19.83-11.48-3.56-2.06-7.15-4.11-10.8-6.22Z"/>
  <path class="cls-1" d="M41.93,39.52c1.48,.37,2.74,.67,3.98,1.04,1.97,.57,3.9,1.23,5.88,1.79,1.15,.32,1.54,.94,.52,2-1.3,1.33-2.53,2.73-3.74,4.16-.7,.83-1.56,1.07-2.53,.81-1.43-.37-2.84-.81-4.27-1.23-1.71-.52-3.41-.99-5.1-1.58-1.17-.41-1.19-.63-.37-1.53,1.36-1.49,2.68-3.04,4.09-4.48,.44-.47,1.09-.7,1.54-.97Z"/>
  <path class="cls-1" d="M46.32,34.38c.21-.41,.32-.76,.55-1.06,1.71-2.23,3.43-4.43,5.23-6.76,3.46,1.98,7.02,4.03,10.65,6.11-1.15,1.36-2.23,2.71-3.39,3.98-1.1,1.19-2.44,1.56-4.04,.96-2.68-.99-5.39-1.87-8.09-2.81-.29-.1-.55-.26-.91-.42Z"/>
  <path class="cls-1" d="M36.25,62.21c-3.43-1.98-6.76-3.9-10.18-5.88,1.4-1.54,2.74-3.07,4.14-4.53,.63-.67,1.51-.55,2.29-.32,2.27,.67,4.53,1.4,6.81,2.08,.83,.24,1.67,.44,2.48,.7,.88,.29,.97,.65,.39,1.32-1.95,2.21-3.91,4.39-5.93,6.64Z"/>
  <path class="cls-1" d="M14,39.65c.58-.34,1.01-.6,1.45-.86,2.61-1.53,5.21-3.05,7.84-4.55,.31-.18,.78-.28,1.12-.18,2.4,.7,4.81,1.45,7.19,2.18,.15,.05,.31,.11,.45,.18,1.01,.41,1.06,.62,.34,1.41-1.43,1.59-2.86,3.17-4.29,4.74-.71,.8-1.64,.81-2.53,.55-2.58-.76-5.15-1.61-7.71-2.39-1.23-.36-2.48-.68-3.87-1.09Z"/>
  <path class="cls-1" d="M74.68,49.48c-.11,.08-.26,.19-.41,.29-2.92,1.69-5.83,3.38-8.77,5.05-.24,.15-.62,.23-.88,.15-2.48-.71-4.95-1.48-7.44-2.23-.26-.08-.5-.19-.73-.32-.49-.26-.57-.57-.16-1.02,1.28-1.43,2.53-2.87,3.8-4.32,1.04-1.2,2.24-1.61,3.83-1.07,3.56,1.2,7.15,2.32,10.75,3.48Z"/>
  <path class="cls-1" d="M37.94,22.19c-1.35,.03-2.4-.6-3.31-1.48-.6-.58-1.19-1.19-1.77-1.79-.81-.84-.83-2.01-.03-2.83,.76-.8,1.88-.84,2.74-.06,.54,.49,1.06,.99,1.54,1.53,.63,.71,.83,.76,1.54,.05,1.4-1.4,2.76-2.81,4.14-4.22,.7-.71,1.4-1.43,2.13-2.1,.93-.86,2.08-.86,2.87-.02,.86,.91,.8,1.98-.15,2.92-1.98,1.98-3.96,3.98-5.94,5.98-1.04,1.07-2.14,2.06-3.77,2.01Z"/>
  <path class="cls-1" d="M57.88,59.19c-4.13,2.44-8.17,4.81-12.21,7.21-.91,.54-1.72,.52-2.53-.29,.1-.13,.19-.28,.31-.41,2.05-2.34,4.09-4.68,6.12-7.02,1.02-1.17,2.21-1.53,3.7-.97,1.51,.52,3.02,.96,4.61,1.48Z"/>
  <path class="cls-1" d="M69.61,36.62c4.55,2.61,9.03,5.21,13.59,7.84-.7,.63-1.32,.91-2.23,.62-4.11-1.28-8.25-2.5-12.38-3.74-.52-.16-1.02-.36-1.51-.55-.57-.23-.78-.55-.28-1.09,.91-.99,1.8-2,2.79-3.09Z"/>
  <path class="cls-1" d="M5.7,44.59c.78-.8,1.51-.84,2.45-.55,4.68,1.46,9.37,2.86,14.06,4.27,.15,.05,.31,.11,.57,.21-1.19,1.32-2.34,2.57-3.52,3.88-4.53-2.6-9.03-5.2-13.56-7.81Z"/>
  <path d="M39.58,64.03c.63-.81,1.25-1.61,1.9-2.4,.03-.05,.31,.02,.34,.08,.06,.11,.08,.34,.02,.42-.68,.71-1.38,1.41-2.06,2.13-.08-.08-.15-.15-.19-.23Z"/>
  <path d="M49.97,53.05c.65,.54,1.71,.21,2.23,1.27-.45-.05-.75-.03-1.01-.11-1.84-.55-3.65-1.12-5.47-1.71-.18-.05-.28-.29-.42-.45,.21-.06,.45-.21,.63-.16,.88,.24,1.77,.49,2.63,.81,.45,.16,.73,.08,1.04-.28,1.2-1.38,2.42-2.74,3.67-4.11,.18-.19,.5-.26,.76-.37-.08,.28-.1,.6-.26,.8-1.27,1.48-2.53,2.89-3.8,4.32Z"/>
  <path d="M29.62,46.96c1.27,.37,2.35,.7,3.44,1.02,.31,.1,.63,.15,.93,.31,.19,.1,.32,.34,.49,.5-.21,.05-.45,.18-.65,.13-.94-.24-1.85-.57-2.79-.81-.71-.18-1.46-.24-2.16-.44-.39-.11-.73-.39-1.07-.62-.06-.05-.08-.29-.03-.36,.1-.1,.31-.19,.41-.15,.73,.41,1.07-.13,1.46-.57,.91-1.04,1.79-2.1,2.73-3.12,.23-.24,.62-.36,.94-.52-.15,.34-.21,.73-.44,1.01-1.02,1.17-2.08,2.32-3.25,3.61Z"/>
  <path d="M67.79,44.15c-.24,0-.49,.05-.7-.02-1.48-.44-2.94-.89-4.42-1.33-.44-.13-.89-.23-1.32-.41-.15-.06-.23-.31-.34-.45,.18-.06,.39-.24,.54-.19,1.97,.58,3.91,1.2,5.86,1.82,.15,.05,.28,.21,.41,.31,0,.1-.02,.18-.03,.28Z"/>
  <path d="M43.48,51.43c-.36,.13-.58,.29-.73,.24-1.98-.58-3.96-1.19-5.93-1.82-.13-.05-.19-.32-.29-.49,.18-.05,.39-.19,.54-.16,1.97,.57,3.91,1.17,5.86,1.77,.13,.06,.26,.23,.55,.45Z"/>
  <path d="M76.56,46.82c-.21,.03-.44,.13-.63,.06-1.32-.37-2.63-.78-3.93-1.19-.62-.19-1.23-.36-1.84-.58-.16-.06-.24-.32-.36-.5,.18-.05,.41-.19,.55-.15,1.95,.58,3.9,1.2,5.85,1.82,.15,.05,.26,.21,.39,.31,0,.08-.02,.15-.03,.23Z"/>
  <path d="M52.64,38.97c.36,.1,.62,.16,.86,.24,1.62,.5,3.25,.99,4.86,1.53,.24,.08,.42,.37,.63,.55-.26,.03-.55,.15-.78,.08-1.74-.49-3.46-1.02-5.2-1.54-.18-.05-.39-.1-.52-.21-.11-.1-.24-.31-.23-.44,.03-.08,.28-.15,.37-.21Z"/>
  <path d="M60.86,56.82c-.21,.03-.44,.15-.62,.1-1.45-.41-2.89-.84-4.34-1.27-.49-.15-.99-.28-1.46-.47-.16-.06-.24-.32-.37-.5,.18-.05,.39-.16,.55-.11,1.88,.54,3.77,1.1,5.64,1.69,.21,.06,.41,.21,.6,.32,.02,.08,.02,.16,0,.24Z"/>
  <path d="M60.42,41.16c-.26,.37-.37,.55-.5,.71-1.28,1.46-2.58,2.91-3.9,4.34-.11,.11-.36,.11-.54,.18,0-.21-.08-.49,.03-.6,1.33-1.53,2.68-3.04,4.04-4.55,.11-.11,.31-.18,.49-.21,.11,0,.24,.1,.37,.13Z"/>
  <path d="M19.36,43.88c.13,.03,.26,.05,.39,.1,1.74,.52,3.46,1.04,5.2,1.56,.18,.05,.39,.1,.52,.21,.11,.1,.15,.31,.21,.45-.15,.05-.29,.15-.42,.13-.37-.06-.73-.18-1.09-.29-1.59-.49-3.2-.97-4.79-1.48-.16-.05-.36-.24-.41-.41-.05-.15,.1-.34,.16-.52,.06,.08,.15,.16,.23,.24Z"/>
  <path d="M43.35,60.25c-.1-.21-.21-.36-.19-.49,.02-.15,.15-.28,.26-.39,1.25-1.41,2.5-2.83,3.77-4.22,.16-.18,.49-.23,.73-.32-.06,.26-.05,.57-.21,.75-1.28,1.46-2.58,2.89-3.88,4.34-.11,.1-.26,.18-.47,.34Z"/>
</svg>